<mxfile host="app.diagrams.net" agent="Mozilla/5.0 (Windows NT 10.0; Win64; x64) AppleWebKit/537.36 (KHTML, like Gecko) Chrome/132.0.0.0 Safari/537.36" version="26.0.10">
  <diagram name="Page-1" id="2s50flM465wgNOnY-cEj">
    <mxGraphModel dx="1154" dy="532" grid="1" gridSize="10" guides="1" tooltips="1" connect="1" arrows="1" fold="1" page="1" pageScale="1" pageWidth="827" pageHeight="1169" math="0" shadow="0">
      <root>
        <mxCell id="0" />
        <mxCell id="1" parent="0" />
        <mxCell id="l41az-iPea58eBpbd93N-1" value="" style="rounded=0;whiteSpace=wrap;html=1;" parent="1" vertex="1">
          <mxGeometry x="75" y="90" width="625" height="490" as="geometry" />
        </mxCell>
        <mxCell id="MxAEn-52afu2dkst7SV7-1" value="&lt;div&gt;:Robot&lt;/div&gt;" style="shape=umlActor;verticalLabelPosition=bottom;verticalAlign=top;html=1;outlineConnect=0;" parent="1" vertex="1">
          <mxGeometry x="120" y="120" width="30" height="60" as="geometry" />
        </mxCell>
        <mxCell id="MxAEn-52afu2dkst7SV7-2" value=":BDD" style="shape=umlActor;verticalLabelPosition=bottom;verticalAlign=top;html=1;outlineConnect=0;" parent="1" vertex="1">
          <mxGeometry x="630" y="120" width="30" height="60" as="geometry" />
        </mxCell>
        <mxCell id="MxAEn-52afu2dkst7SV7-3" value=":Station_meteo" style="shape=umlActor;verticalLabelPosition=bottom;verticalAlign=top;html=1;outlineConnect=0;" parent="1" vertex="1">
          <mxGeometry x="290" y="120" width="30" height="60" as="geometry" />
        </mxCell>
        <mxCell id="MxAEn-52afu2dkst7SV7-4" value=":Sys_Traitement" style="shape=umlActor;verticalLabelPosition=bottom;verticalAlign=top;html=1;outlineConnect=0;" parent="1" vertex="1">
          <mxGeometry x="460" y="120" width="30" height="60" as="geometry" />
        </mxCell>
        <mxCell id="MxAEn-52afu2dkst7SV7-6" value="" style="endArrow=none;dashed=1;html=1;rounded=0;" parent="1" source="MxAEn-52afu2dkst7SV7-13" edge="1">
          <mxGeometry width="50" height="50" relative="1" as="geometry">
            <mxPoint x="134.57999999999998" y="210" as="sourcePoint" />
            <mxPoint x="135" y="560" as="targetPoint" />
          </mxGeometry>
        </mxCell>
        <mxCell id="MxAEn-52afu2dkst7SV7-7" value="" style="endArrow=none;dashed=1;html=1;rounded=0;" parent="1" source="MxAEn-52afu2dkst7SV7-30" edge="1">
          <mxGeometry width="50" height="50" relative="1" as="geometry">
            <mxPoint x="644.5799999999999" y="190" as="sourcePoint" />
            <mxPoint x="645" y="450" as="targetPoint" />
          </mxGeometry>
        </mxCell>
        <mxCell id="MxAEn-52afu2dkst7SV7-8" value="" style="endArrow=none;dashed=1;html=1;rounded=0;" parent="1" source="MxAEn-52afu2dkst7SV7-33" edge="1">
          <mxGeometry width="50" height="50" relative="1" as="geometry">
            <mxPoint x="474.58" y="210" as="sourcePoint" />
            <mxPoint x="475" y="560" as="targetPoint" />
          </mxGeometry>
        </mxCell>
        <mxCell id="MxAEn-52afu2dkst7SV7-9" value="" style="endArrow=none;dashed=1;html=1;rounded=0;" parent="1" source="MxAEn-52afu2dkst7SV7-19" edge="1">
          <mxGeometry width="50" height="50" relative="1" as="geometry">
            <mxPoint x="304.58000000000004" y="190" as="sourcePoint" />
            <mxPoint x="305" y="560" as="targetPoint" />
          </mxGeometry>
        </mxCell>
        <mxCell id="MxAEn-52afu2dkst7SV7-14" value="" style="endArrow=none;dashed=1;html=1;rounded=0;" parent="1" target="MxAEn-52afu2dkst7SV7-13" edge="1">
          <mxGeometry width="50" height="50" relative="1" as="geometry">
            <mxPoint x="134.57999999999998" y="210" as="sourcePoint" />
            <mxPoint x="134.57999999999998" y="690" as="targetPoint" />
          </mxGeometry>
        </mxCell>
        <mxCell id="MxAEn-52afu2dkst7SV7-13" value="" style="rounded=0;whiteSpace=wrap;html=1;" parent="1" vertex="1">
          <mxGeometry x="130" y="230" width="10" height="20" as="geometry" />
        </mxCell>
        <mxCell id="MxAEn-52afu2dkst7SV7-15" value="" style="endArrow=classic;html=1;rounded=0;exitX=1;exitY=0.25;exitDx=0;exitDy=0;entryX=0.117;entryY=0.131;entryDx=0;entryDy=0;entryPerimeter=0;" parent="1" source="MxAEn-52afu2dkst7SV7-13" target="MxAEn-52afu2dkst7SV7-16" edge="1">
          <mxGeometry width="50" height="50" relative="1" as="geometry">
            <mxPoint x="560" y="450" as="sourcePoint" />
            <mxPoint x="460" y="240" as="targetPoint" />
          </mxGeometry>
        </mxCell>
        <mxCell id="MxAEn-52afu2dkst7SV7-18" value="Informations_Terrain" style="edgeLabel;html=1;align=center;verticalAlign=middle;resizable=0;points=[];" parent="MxAEn-52afu2dkst7SV7-15" vertex="1" connectable="0">
          <mxGeometry x="-0.3515" y="1" relative="1" as="geometry">
            <mxPoint x="-27" as="offset" />
          </mxGeometry>
        </mxCell>
        <mxCell id="MxAEn-52afu2dkst7SV7-17" value="" style="endArrow=none;dashed=1;html=1;rounded=0;" parent="1" target="MxAEn-52afu2dkst7SV7-16" edge="1">
          <mxGeometry width="50" height="50" relative="1" as="geometry">
            <mxPoint x="474.58" y="210" as="sourcePoint" />
            <mxPoint x="474.58" y="690" as="targetPoint" />
          </mxGeometry>
        </mxCell>
        <mxCell id="MxAEn-52afu2dkst7SV7-16" value="" style="rounded=0;whiteSpace=wrap;html=1;" parent="1" vertex="1">
          <mxGeometry x="470" y="230" width="10" height="20" as="geometry" />
        </mxCell>
        <mxCell id="MxAEn-52afu2dkst7SV7-20" value="" style="endArrow=none;dashed=1;html=1;rounded=0;" parent="1" target="MxAEn-52afu2dkst7SV7-19" edge="1">
          <mxGeometry width="50" height="50" relative="1" as="geometry">
            <mxPoint x="304.58000000000004" y="210" as="sourcePoint" />
            <mxPoint x="304.58000000000004" y="690" as="targetPoint" />
          </mxGeometry>
        </mxCell>
        <mxCell id="MxAEn-52afu2dkst7SV7-19" value="" style="rounded=0;whiteSpace=wrap;html=1;" parent="1" vertex="1">
          <mxGeometry x="300" y="390" width="10" height="20" as="geometry" />
        </mxCell>
        <mxCell id="MxAEn-52afu2dkst7SV7-21" value="" style="endArrow=classic;html=1;rounded=0;exitX=1;exitY=0.5;exitDx=0;exitDy=0;" parent="1" source="MxAEn-52afu2dkst7SV7-19" edge="1">
          <mxGeometry width="50" height="50" relative="1" as="geometry">
            <mxPoint x="150" y="370" as="sourcePoint" />
            <mxPoint x="470" y="401" as="targetPoint" />
          </mxGeometry>
        </mxCell>
        <mxCell id="MxAEn-52afu2dkst7SV7-22" value="Informations_meteo" style="edgeLabel;html=1;align=center;verticalAlign=middle;resizable=0;points=[];" parent="MxAEn-52afu2dkst7SV7-21" vertex="1" connectable="0">
          <mxGeometry x="-0.3515" y="1" relative="1" as="geometry">
            <mxPoint x="28" y="1" as="offset" />
          </mxGeometry>
        </mxCell>
        <mxCell id="MxAEn-52afu2dkst7SV7-24" value="" style="endArrow=none;dashed=1;html=1;rounded=0;" parent="1" source="MxAEn-52afu2dkst7SV7-16" target="MxAEn-52afu2dkst7SV7-23" edge="1">
          <mxGeometry width="50" height="50" relative="1" as="geometry">
            <mxPoint x="475" y="290" as="sourcePoint" />
            <mxPoint x="474.58" y="690" as="targetPoint" />
          </mxGeometry>
        </mxCell>
        <mxCell id="MxAEn-52afu2dkst7SV7-23" value="" style="rounded=0;whiteSpace=wrap;html=1;" parent="1" vertex="1">
          <mxGeometry x="470" y="260" width="10" height="20" as="geometry" />
        </mxCell>
        <mxCell id="MxAEn-52afu2dkst7SV7-26" value="" style="endArrow=none;dashed=1;html=1;rounded=0;" parent="1" target="MxAEn-52afu2dkst7SV7-25" edge="1">
          <mxGeometry width="50" height="50" relative="1" as="geometry">
            <mxPoint x="644.5799999999999" y="210" as="sourcePoint" />
            <mxPoint x="644.5799999999999" y="690" as="targetPoint" />
          </mxGeometry>
        </mxCell>
        <mxCell id="MxAEn-52afu2dkst7SV7-25" value="" style="rounded=0;whiteSpace=wrap;html=1;" parent="1" vertex="1">
          <mxGeometry x="640" y="260" width="10" height="20" as="geometry" />
        </mxCell>
        <mxCell id="MxAEn-52afu2dkst7SV7-27" value="" style="endArrow=classic;html=1;rounded=0;exitX=1;exitY=0.5;exitDx=0;exitDy=0;entryX=0;entryY=0.5;entryDx=0;entryDy=0;" parent="1" source="MxAEn-52afu2dkst7SV7-23" target="MxAEn-52afu2dkst7SV7-25" edge="1">
          <mxGeometry width="50" height="50" relative="1" as="geometry">
            <mxPoint x="550" y="430" as="sourcePoint" />
            <mxPoint x="600" y="380" as="targetPoint" />
          </mxGeometry>
        </mxCell>
        <mxCell id="MxAEn-52afu2dkst7SV7-28" value="Archiver_donnees_bruts" style="edgeLabel;html=1;align=center;verticalAlign=middle;resizable=0;points=[];" parent="MxAEn-52afu2dkst7SV7-27" vertex="1" connectable="0">
          <mxGeometry x="0.0901" relative="1" as="geometry">
            <mxPoint x="-7" as="offset" />
          </mxGeometry>
        </mxCell>
        <mxCell id="MxAEn-52afu2dkst7SV7-29" value="" style="rounded=0;whiteSpace=wrap;html=1;" parent="1" vertex="1">
          <mxGeometry x="470" y="510" width="10" height="30" as="geometry" />
        </mxCell>
        <mxCell id="MxAEn-52afu2dkst7SV7-31" value="" style="endArrow=classic;html=1;rounded=0;exitX=1;exitY=0.5;exitDx=0;exitDy=0;entryX=0;entryY=0.5;entryDx=0;entryDy=0;" parent="1" source="MxAEn-52afu2dkst7SV7-29" target="MxAEn-52afu2dkst7SV7-30" edge="1">
          <mxGeometry width="50" height="50" relative="1" as="geometry">
            <mxPoint x="550" y="470" as="sourcePoint" />
            <mxPoint x="600" y="420" as="targetPoint" />
          </mxGeometry>
        </mxCell>
        <mxCell id="MxAEn-52afu2dkst7SV7-32" value="Archiver_donnees_traitees" style="edgeLabel;html=1;align=center;verticalAlign=middle;resizable=0;points=[];" parent="MxAEn-52afu2dkst7SV7-31" vertex="1" connectable="0">
          <mxGeometry x="0.0901" relative="1" as="geometry">
            <mxPoint x="-7" as="offset" />
          </mxGeometry>
        </mxCell>
        <mxCell id="MxAEn-52afu2dkst7SV7-34" value="" style="endArrow=none;dashed=1;html=1;rounded=0;" parent="1" source="MxAEn-52afu2dkst7SV7-23" target="MxAEn-52afu2dkst7SV7-33" edge="1">
          <mxGeometry width="50" height="50" relative="1" as="geometry">
            <mxPoint x="475" y="330" as="sourcePoint" />
            <mxPoint x="474.58" y="690" as="targetPoint" />
          </mxGeometry>
        </mxCell>
        <mxCell id="MxAEn-52afu2dkst7SV7-33" value="" style="rounded=0;whiteSpace=wrap;html=1;" parent="1" vertex="1">
          <mxGeometry x="470" y="290" width="10" height="50" as="geometry" />
        </mxCell>
        <mxCell id="MxAEn-52afu2dkst7SV7-35" value="" style="endArrow=classic;html=1;rounded=0;exitX=1;exitY=0.5;exitDx=0;exitDy=0;entryX=1.071;entryY=0.831;entryDx=0;entryDy=0;entryPerimeter=0;" parent="1" target="MxAEn-52afu2dkst7SV7-33" edge="1">
          <mxGeometry width="50" height="50" relative="1" as="geometry">
            <mxPoint x="480" y="300" as="sourcePoint" />
            <mxPoint x="560" y="300" as="targetPoint" />
            <Array as="points">
              <mxPoint x="520" y="300" />
              <mxPoint x="520" y="330" />
            </Array>
          </mxGeometry>
        </mxCell>
        <mxCell id="MxAEn-52afu2dkst7SV7-37" value="Traiter_donnees" style="edgeLabel;html=1;align=center;verticalAlign=middle;resizable=0;points=[];" parent="MxAEn-52afu2dkst7SV7-35" vertex="1" connectable="0">
          <mxGeometry x="-0.0586" y="1" relative="1" as="geometry">
            <mxPoint as="offset" />
          </mxGeometry>
        </mxCell>
        <mxCell id="l41az-iPea58eBpbd93N-2" value="DS : Archiver_Donnees_Traitees" style="shape=partialRectangle;whiteSpace=wrap;html=1;top=0;left=0;fillColor=none;" parent="1" vertex="1">
          <mxGeometry x="75" y="90" width="195" height="20" as="geometry" />
        </mxCell>
        <mxCell id="ENASbzGM_fgR1nh3ohyx-3" value="" style="rounded=0;whiteSpace=wrap;html=1;" vertex="1" parent="1">
          <mxGeometry x="470" y="390" width="10" height="20" as="geometry" />
        </mxCell>
        <mxCell id="ENASbzGM_fgR1nh3ohyx-4" value="" style="rounded=0;whiteSpace=wrap;html=1;" vertex="1" parent="1">
          <mxGeometry x="470" y="450" width="10" height="50" as="geometry" />
        </mxCell>
        <mxCell id="ENASbzGM_fgR1nh3ohyx-5" value="" style="endArrow=classic;html=1;rounded=0;exitX=1;exitY=0.5;exitDx=0;exitDy=0;entryX=1.071;entryY=0.831;entryDx=0;entryDy=0;entryPerimeter=0;" edge="1" parent="1" target="ENASbzGM_fgR1nh3ohyx-4">
          <mxGeometry width="50" height="50" relative="1" as="geometry">
            <mxPoint x="480" y="460" as="sourcePoint" />
            <mxPoint x="560" y="460" as="targetPoint" />
            <Array as="points">
              <mxPoint x="520" y="460" />
              <mxPoint x="520" y="490" />
            </Array>
          </mxGeometry>
        </mxCell>
        <mxCell id="ENASbzGM_fgR1nh3ohyx-6" value="Traiter_donnees" style="edgeLabel;html=1;align=center;verticalAlign=middle;resizable=0;points=[];" vertex="1" connectable="0" parent="ENASbzGM_fgR1nh3ohyx-5">
          <mxGeometry x="-0.0586" y="1" relative="1" as="geometry">
            <mxPoint as="offset" />
          </mxGeometry>
        </mxCell>
        <mxCell id="ENASbzGM_fgR1nh3ohyx-7" value="" style="endArrow=none;dashed=1;html=1;rounded=0;" edge="1" parent="1" source="MxAEn-52afu2dkst7SV7-25">
          <mxGeometry width="50" height="50" relative="1" as="geometry">
            <mxPoint x="645" y="280" as="sourcePoint" />
            <mxPoint x="645" y="560" as="targetPoint" />
          </mxGeometry>
        </mxCell>
        <mxCell id="MxAEn-52afu2dkst7SV7-30" value="" style="rounded=0;whiteSpace=wrap;html=1;" parent="1" vertex="1">
          <mxGeometry x="640" y="510" width="10" height="30" as="geometry" />
        </mxCell>
        <mxCell id="ENASbzGM_fgR1nh3ohyx-14" value="" style="rounded=0;whiteSpace=wrap;html=1;" vertex="1" parent="1">
          <mxGeometry x="470" y="350" width="10" height="30" as="geometry" />
        </mxCell>
        <mxCell id="ENASbzGM_fgR1nh3ohyx-15" value="" style="endArrow=classic;html=1;rounded=0;exitX=1;exitY=0.5;exitDx=0;exitDy=0;entryX=0;entryY=0.5;entryDx=0;entryDy=0;" edge="1" parent="1" source="ENASbzGM_fgR1nh3ohyx-14" target="ENASbzGM_fgR1nh3ohyx-17">
          <mxGeometry width="50" height="50" relative="1" as="geometry">
            <mxPoint x="550" y="400" as="sourcePoint" />
            <mxPoint x="600" y="350" as="targetPoint" />
          </mxGeometry>
        </mxCell>
        <mxCell id="ENASbzGM_fgR1nh3ohyx-16" value="Archiver_donnees_traitees" style="edgeLabel;html=1;align=center;verticalAlign=middle;resizable=0;points=[];" vertex="1" connectable="0" parent="ENASbzGM_fgR1nh3ohyx-15">
          <mxGeometry x="0.0901" relative="1" as="geometry">
            <mxPoint x="-7" as="offset" />
          </mxGeometry>
        </mxCell>
        <mxCell id="ENASbzGM_fgR1nh3ohyx-17" value="" style="rounded=0;whiteSpace=wrap;html=1;" vertex="1" parent="1">
          <mxGeometry x="640" y="350" width="10" height="30" as="geometry" />
        </mxCell>
        <mxCell id="ENASbzGM_fgR1nh3ohyx-22" value="" style="rounded=0;whiteSpace=wrap;html=1;" vertex="1" parent="1">
          <mxGeometry x="470" y="420" width="10" height="20" as="geometry" />
        </mxCell>
        <mxCell id="ENASbzGM_fgR1nh3ohyx-23" value="" style="rounded=0;whiteSpace=wrap;html=1;" vertex="1" parent="1">
          <mxGeometry x="640" y="420" width="10" height="20" as="geometry" />
        </mxCell>
        <mxCell id="ENASbzGM_fgR1nh3ohyx-24" value="" style="endArrow=classic;html=1;rounded=0;exitX=1;exitY=0.5;exitDx=0;exitDy=0;entryX=0;entryY=0.5;entryDx=0;entryDy=0;" edge="1" parent="1" source="ENASbzGM_fgR1nh3ohyx-22" target="ENASbzGM_fgR1nh3ohyx-23">
          <mxGeometry width="50" height="50" relative="1" as="geometry">
            <mxPoint x="550" y="590" as="sourcePoint" />
            <mxPoint x="600" y="540" as="targetPoint" />
          </mxGeometry>
        </mxCell>
        <mxCell id="ENASbzGM_fgR1nh3ohyx-25" value="Archiver_donnees_bruts" style="edgeLabel;html=1;align=center;verticalAlign=middle;resizable=0;points=[];" vertex="1" connectable="0" parent="ENASbzGM_fgR1nh3ohyx-24">
          <mxGeometry x="0.0901" relative="1" as="geometry">
            <mxPoint x="-7" as="offset" />
          </mxGeometry>
        </mxCell>
      </root>
    </mxGraphModel>
  </diagram>
</mxfile>
